<?xml version="1.0" encoding="utf-8"?>
<!-- Generator: Adobe Illustrator 25.0.1, SVG Export Plug-In . SVG Version: 6.00 Build 0)  -->
<svg version="1.1" id="Layer_1" xmlns="http://www.w3.org/2000/svg" xmlns:xlink="http://www.w3.org/1999/xlink" x="0px" y="0px"
	 viewBox="0 0 1417.32 1608.77" style="enable-background:new 0 0 1417.32 1608.77;" xml:space="preserve">
<style type="text/css">
	.st0{fill:#1B3C62;}
	.st1{fill:#F7CAA5;}
	.st2{fill:#21AAE3;}
	.st3{fill:#60BEB7;}
</style>
<g>
	<path class="st0" d="M275.06,1151.45c35.6-16.71,71.13-28.88,108.95-34.14c70.06-9.74,137.7-0.63,199.88,32.39
		c46.54,24.71,94.31,36.76,146.54,36.65c49.97-0.1,99.94,2.57,149.91,3.64c61.56,1.32,110.04,26.7,144.07,78.2
		c5.32,8.05,9.02,10.02,18.01,5.44c49.75-25.32,100.58-48.48,151.01-72.34c34.3-16.23,67.84-37.76,109.32-34.37
		c45.87,3.76,81.77,23.28,107.19,61.52c12.29,18.49,9.27,32.47-9.44,44.59c-154.28,99.94-307.81,201.1-463.46,298.86
		c-52.74,33.13-114.53,39.99-176.57,35.78c-61.42-4.16-118.4-27.48-177.17-42.92c-63.64-16.72-126.89-34.95-190.12-53.18
		c-29.66-8.55-57.38-6.27-83.86,9.97c-7,4.29-14.31,8.19-21.82,11.5c-15.64,6.89-28.13,13.94-25.72,35.66
		c1.65,14.83-11.48,25.16-27.01,24.86c-69.21-1.34-138.42-2.99-207.6-5.13c-18.75-0.58-27.7-12.33-27.15-33.83
		c2.34-90.61,4.87-181.22,7.4-271.82c1.61-57.66,3.38-115.32,5.05-172.99c0.73-25.44,10.04-34.6,35.5-33.91
		c65.34,1.76,130.68,3.7,196.01,5.65c21.14,0.63,30.98,10.89,31.06,32.03C275.1,1125.58,275.06,1137.62,275.06,1151.45z
		 M1350.83,1242.03c-21.14-20.49-61.41-26.38-89.59-13.17c-67.07,31.45-133.96,63.27-201.08,94.6c-8.03,3.75-12.47,7.52-9.9,17.23
		c1.51,5.7,0.98,12.02,0.9,18.05c-0.26,20.2-10.15,30.51-30.68,30.03c-102.14-2.42-204.28-5.13-306.41-8.04
		c-19.11-0.54-30.17-11.76-29.52-28.08c0.63-15.68,11.91-25.29,30.51-24.96c36.25,0.65,72.5,1.66,108.74,2.68
		c53.26,1.49,106.52,3.21,159.78,4.54c4.65,0.12,12.9,4.25,10.29-7.94c-8.24-38.38-52.61-78.7-91.57-80.92
		c-43.1-2.45-86.28-5.73-129.4-5.37c-79.03,0.67-152.94-11.85-225.64-48.16c-86.33-43.12-175.94-33.21-260.79,13.68
		c-10.72,5.92-15.28,12.76-15.52,25.6c-1.48,79.09-4.04,158.16-6.05,237.24c-0.11,4.52-2.07,9.59,1.99,14.37
		c4.53-2.22,9.09-4.02,13.21-6.54c42.53-26.07,87.01-28.64,134.5-14.85c100.57,29.2,201.19,58.42,302.58,84.57
		c74.11,19.11,146.06,10.57,211.84-31.82c82.14-52.94,164.16-106.07,246.22-159.13C1233.71,1317.81,1292.17,1279.98,1350.83,1242.03
		z M215.59,1338.61C217.28,1338.62,213.9,1338.61,215.59,1338.61c0-63.72,5.01-127.41,5.16-191.13c0.02-7.58,0.85-13.62-10.31-13.79
		c-44.49-0.66-88.97-2-133.43-3.57c-9.24-0.33-12.61,2.47-12.54,11.89c0.12,15.36-1.13,30.73-1.56,46.11
		c-3.17,110.93-6.26,221.87-9.44,332.8c-0.24,8.43-1.83,15.79,11.57,15.89c43.94,0.34,87.88,1.67,131.78,3.43
		c11.17,0.45,13.67-3.31,13.88-13.8C211.94,1463.82,213.88,1401.22,215.59,1338.61z"/>
	<path class="st0" d="M1107.6,733.18c3.63,204.15-167.71,379.84-373.48,383.54c-215.14,3.88-386.26-166.32-391.69-372.11
		c-5.68-215.16,165.13-390.87,377.33-393.63C940.41,348.11,1108.3,527.28,1107.6,733.18z M1054.81,734.39
		c0.23-182.59-148.66-331.88-330.32-331.21c-180.95,0.67-329.09,148.74-329.29,329.14c-0.2,181.75,145.67,330.13,326.32,331.94
		C904.4,1066.09,1054.58,917.46,1054.81,734.39z"/>
	<path class="st0" d="M698.55,150.61c0.01-40.11-0.13-80.22,0.07-120.33c0.09-18.95,11.01-30.8,27.07-30.26
		c15.71,0.53,25.7,11.87,25.72,29.92c0.08,80.78,0.09,161.56-0.01,242.34c-0.02,19.24-10.17,30.99-26.21,31.11
		c-16.05,0.12-26.43-11.44-26.56-30.81C698.36,231.93,698.55,191.27,698.55,150.61z"/>
	<path class="st0" d="M500.72,217.17c0-18.68-0.23-37.37,0.06-56.05c0.29-18.26,10.44-29.21,26.39-29.2
		c15.74,0.01,26.2,11.23,26.34,29.29c0.29,37.91,0.32,75.82,0.17,113.73c-0.07,16.43-10.89,28.01-25.72,28.45
		c-15.53,0.46-27.04-11.15-27.38-28.53c-0.38-19.22-0.09-38.46-0.09-57.69C500.56,217.17,500.64,217.17,500.72,217.17z"/>
	<path class="st0" d="M896.27,217.69c0-18.62-0.06-37.25,0.02-55.87c0.07-17.43,10.6-29.74,25.62-30.14
		c15.79-0.41,27.2,11.81,27.3,30.12c0.21,37.79,0.23,75.58-0.01,113.36c-0.11,16.96-10.37,27.94-25.36,28.24
		c-15.81,0.32-27.01-10.87-27.34-28.22c-0.37-19.16-0.08-38.33-0.08-57.5C896.37,217.69,896.32,217.69,896.27,217.69z"/>
	<path class="st1" d="M1350.83,1242.03c-58.66,37.95-117.11,75.78-175.58,113.58c-82.06,53.06-164.08,106.19-246.22,159.13
		c-65.78,42.39-137.73,50.94-211.84,31.82c-101.39-26.15-202.01-55.36-302.58-84.57c-47.49-13.79-91.97-11.21-134.5,14.85
		c-4.12,2.52-8.68,4.32-13.21,6.54c-4.07-4.78-2.11-9.86-1.99-14.37c2.01-79.08,4.57-158.15,6.05-237.24
		c0.24-12.83,4.8-19.67,15.52-25.6c84.85-46.89,174.46-56.8,260.79-13.68c72.7,36.31,146.62,48.83,225.64,48.16
		c43.12-0.37,86.3,2.91,129.4,5.37c38.95,2.22,83.33,42.54,91.57,80.92c2.62,12.18-5.64,8.06-10.29,7.94
		c-53.27-1.33-106.52-3.05-159.78-4.54c-36.24-1.02-72.49-2.03-108.74-2.68c-18.6-0.33-29.88,9.28-30.51,24.96
		c-0.66,16.32,10.41,27.54,29.52,28.08c102.13,2.91,204.26,5.62,306.41,8.04c20.53,0.49,30.41-9.82,30.68-30.03
		c0.08-6.03,0.61-12.35-0.9-18.05c-2.57-9.7,1.87-13.48,9.9-17.23c67.12-31.33,134.01-63.15,201.08-94.6
		C1289.41,1215.65,1329.69,1221.54,1350.83,1242.03z"/>
	<path class="st2" d="M215.59,1338.61c-1.71,62.61-3.66,125.21-4.9,187.83c-0.21,10.49-2.71,14.25-13.88,13.8
		c-43.91-1.76-87.85-3.08-131.78-3.43c-13.4-0.1-11.81-7.46-11.57-15.89c3.18-110.93,6.27-221.87,9.44-332.8
		c0.44-15.37,1.69-30.74,1.56-46.11c-0.07-9.42,3.3-12.22,12.54-11.89c44.47,1.57,88.95,2.9,133.43,3.57
		c11.16,0.17,10.33,6.21,10.31,13.79C220.6,1211.2,215.59,1274.9,215.59,1338.61C213.9,1338.61,217.28,1338.62,215.59,1338.61z"/>
	<path class="st3" d="M1054.81,734.39c-0.23,183.07-150.41,331.7-333.29,329.87C540.87,1062.44,395,914.06,395.2,732.31
		c0.19-180.4,148.34-328.48,329.29-329.14C906.15,402.5,1055.04,551.8,1054.81,734.39z M627.56,811.18c8.21,0,13.48,0,18.75,0
		c41.76,0,83.53-0.11,125.29,0.07c11.05,0.05,20.97-2.24,27.47-11.75c5.62-8.23,6.71-17.21,1.57-26.43
		c-6.05-10.86-15.63-14.56-27.49-14.54c-49.46,0.09-98.93-0.76-148.36,0.49c-16.18,0.41-17.7-7.12-18.39-19.43
		c-0.91-16.18,10.81-10.6,18.03-10.65c54.95-0.37,109.9-0.14,164.85-0.23c22.08-0.04,34.52-9.85,34.43-26.68
		c-0.09-16.28-13.03-25.8-35.23-25.9c-4.4-0.02-8.79,0-13.19,0c-47.81,0-95.62-0.37-143.42,0.23c-13.09,0.16-13.25-3.39-8.15-13.72
		c34.01-68.85,114.97-101.44,191.79-76.74c19.92,6.4,33.52,1.03,38.68-15.28c4.83-15.25-2.94-27.16-22.16-33.95
		c-98.4-34.78-209.86,9.58-254.46,104.17c-11.56,24.53-21.12,42.97-51.79,35.45c-0.5-0.12-1.1,0.01-1.63,0.13
		c-13.88,3.17-23.16,11.3-22.94,25.98c0.22,14.37,8.86,23.42,23.06,25.88c6.42,1.11,13.18,0.79,19.74,0.37
		c7.56-0.48,10.21,2.01,10.89,10.02c1.68,19.84,2.25,19.79-18.51,19.89c-3.3,0.02-6.62-0.2-9.88,0.14
		c-14.51,1.54-25.17,12.29-25.54,25.53c-0.38,13.76,10.9,25.73,25.96,26.77c8.75,0.6,17.69,1.06,26.34-0.05
		c12.41-1.59,18.01,3.69,23.3,14.66c45.81,94.98,156.98,140.41,255.75,105.24c19.1-6.8,26.79-18.81,21.85-34.13
		c-5.21-16.18-19.18-21.82-38.72-15.01c-28.19,9.82-56.84,11.8-85.84,5.05C685.96,876.6,652.81,851.99,627.56,811.18z"/>
	<path class="st0" d="M627.56,811.18c25.25,40.82,58.4,65.42,102.07,75.58c29,6.75,57.65,4.77,85.84-5.05
		c19.54-6.81,33.51-1.16,38.72,15.01c4.94,15.32-2.75,27.33-21.85,34.13c-98.76,35.18-209.94-10.26-255.75-105.24
		c-5.29-10.97-10.89-16.25-23.3-14.66c-8.65,1.11-17.59,0.65-26.34,0.05c-15.06-1.04-26.34-13.02-25.96-26.77
		c0.37-13.24,11.04-23.99,25.54-25.53c3.26-0.35,6.59-0.12,9.88-0.14c20.76-0.11,20.19-0.06,18.51-19.89
		c-0.68-8.01-3.33-10.5-10.89-10.02c-6.56,0.42-13.32,0.74-19.74-0.37c-14.2-2.46-22.84-11.51-23.06-25.88
		c-0.22-14.68,9.06-22.81,22.94-25.98c0.53-0.12,1.11-0.13,1.63-0.13c36.12-0.31,40.23-10.92,51.79-35.45
		c44.6-94.6,156.06-138.95,254.46-104.17c19.22,6.79,26.99,18.7,22.16,33.95c-5.17,16.31-18.77,21.68-38.68,15.28
		c-76.82-24.7-157.78,7.88-191.79,76.74c-5.1,10.33-4.95,13.89,8.15,13.72c47.8-0.6,95.61-0.23,143.42-0.23c4.4,0,8.79-0.02,13.19,0
		c22.2,0.1,35.15,9.62,35.23,25.9c0.09,16.84-12.36,26.65-34.43,26.68c-54.95,0.09-109.9-0.14-164.85,0.23
		c-7.22,0.05-18.94-5.52-18.03,10.65c0.69,12.31,2.21,19.84,18.39,19.43c49.43-1.25,98.9-0.4,148.36-0.49
		c11.85-0.02,21.43,3.68,27.49,14.54c5.14,9.22,4.05,18.2-1.57,26.43c-6.49,9.51-16.42,11.8-27.47,11.75
		c-41.76-0.18-83.53-0.07-125.29-0.07C641.03,811.18,635.76,811.18,627.56,811.18z"/>
</g>
</svg>
