<?xml version="1.0" encoding="UTF-8" standalone="no"?>
<!DOCTYPE svg PUBLIC "-//W3C//DTD SVG 1.1//EN" "http://www.w3.org/Graphics/SVG/1.1/DTD/svg11.dtd">
<svg width="100%" height="100%" viewBox="0 0 1001 1001" version="1.1" xmlns="http://www.w3.org/2000/svg" xmlns:xlink="http://www.w3.org/1999/xlink" xml:space="preserve" xmlns:serif="http://www.serif.com/" style="fill-rule:evenodd;clip-rule:evenodd;stroke-linejoin:round;stroke-miterlimit:2;">
    <g transform="matrix(4.16667,0,0,4.16667,0,0)">
        <path d="M0,133.541L0,22.92C0,10.282 10.281,0 22.919,0L217.102,0C229.739,0 240.02,10.282 240.02,22.92L240.02,133.541L0,133.541Z" style="fill:rgb(255,71,133);fill-rule:nonzero;"/>
    </g>
    <g transform="matrix(4.16667,0,0,4.16667,0,1000.09)">
        <path d="M0,-106.48L0,-22.919C0,-10.282 10.281,0 22.919,0L217.102,0C229.739,0 240.02,-10.282 240.02,-22.919L240.02,-106.48L0,-106.48Z" style="fill:white;fill-rule:nonzero;"/>
    </g>
    <g transform="matrix(4.16667,0,0,4.16667,638.169,148.314)">
        <path d="M0,24.163C-6.673,24.163 -12.082,18.754 -12.082,12.081C-12.082,5.409 -6.673,0 0,0C6.673,0 12.082,5.409 12.082,12.081C12.082,18.754 6.673,24.163 0,24.163M-66.302,24.163C-72.975,24.163 -78.384,18.754 -78.384,12.081C-78.384,5.409 -72.975,0 -66.302,0C-59.629,0 -54.22,5.409 -54.22,12.081C-54.22,18.754 -59.629,24.163 -66.302,24.163M0,-14.849C-5.848,-14.849 -11.256,-12.98 -15.672,-9.813L-39.732,7.695C-41.827,-5.091 -52.923,-14.849 -66.302,-14.849C-81.176,-14.849 -93.232,-2.792 -93.232,12.081C-93.232,26.955 -81.176,39.012 -66.302,39.012C-60.422,39.012 -54.986,37.122 -50.558,33.925L-26.568,16.474C-24.471,29.257 -13.377,39.012 0,39.012C14.873,39.012 26.931,26.955 26.931,12.081C26.931,-2.792 14.873,-14.849 0,-14.849" style="fill:white;fill-rule:nonzero;"/>
    </g>
    <g transform="matrix(4.16667,0,0,4.16667,590.618,405.241)">
        <path d="M0,4.593C0,2 -2.085,-0.11 -4.647,-0.11C-7.21,-0.11 -9.296,2 -9.296,4.593C-9.296,7.186 -7.21,9.297 -4.647,9.297C-2.085,9.297 0,7.186 0,4.593M6.24,4.593C6.24,10.668 1.355,15.611 -4.647,15.611C-10.651,15.611 -15.535,10.668 -15.535,4.593C-15.535,-1.482 -10.651,-6.425 -4.647,-6.425C1.355,-6.425 6.24,-1.482 6.24,4.593M-37.312,-6.223L-43.645,-6.223L-48.144,5.304L-52.986,-6.223L-59.74,-6.223L-51.149,13.008L-54.118,20.615L-47.786,20.615L-37.312,-6.223ZM19.172,-6.242C17.834,-6.242 16.477,-5.969 15.203,-5.451L15.203,-6.271L8.963,-6.271L8.963,15.537L15.203,15.537L15.203,4.066C15.203,0.184 18.766,0.072 19.172,0.072C20.216,0.072 21.161,0.416 21.832,1.041C22.599,1.752 22.985,2.817 22.985,4.203L22.985,15.394L29.226,15.394L29.226,4.203C29.226,-2.654 24.168,-6.242 19.172,-6.242M-68.244,4.048C-68.513,1.711 -70.479,-0.11 -72.858,-0.11C-75.421,-0.11 -77.506,2 -77.506,4.593C-77.506,7.186 -75.421,9.297 -72.858,9.297C-70.479,9.297 -68.513,7.475 -68.244,5.139L-68.244,4.048ZM-62.005,15.537L-68.244,15.537L-68.244,14.558C-69.647,15.226 -71.208,15.611 -72.858,15.611C-78.862,15.611 -83.746,10.668 -83.746,4.593C-83.746,-1.482 -78.862,-6.425 -72.858,-6.425C-71.208,-6.425 -69.647,-6.04 -68.244,-5.372L-68.244,-6.271L-62.005,-6.271L-62.005,15.537ZM-91.893,4.593C-91.893,2 -93.978,-0.11 -96.54,-0.11C-99.103,-0.11 -101.188,2 -101.188,4.593C-101.188,7.186 -99.103,9.297 -96.54,9.297C-93.978,9.297 -91.893,7.186 -91.893,4.593M-85.652,4.593C-85.652,10.668 -90.537,15.611 -96.54,15.611C-98.242,15.611 -99.848,15.202 -101.284,14.495L-101.284,20.545L-107.523,20.545L-107.523,-6.271L-101.284,-6.271L-101.284,-5.308C-99.848,-6.016 -98.242,-6.425 -96.54,-6.425C-90.537,-6.425 -85.652,-1.482 -85.652,4.593M-26.412,-0.11C-24.847,-0.11 -23.396,0.684 -22.53,2.013L-17.318,-1.461C-19.342,-4.569 -22.741,-6.425 -26.412,-6.425C-32.416,-6.425 -37.3,-1.482 -37.3,4.593C-37.3,10.668 -32.416,15.611 -26.412,15.611C-22.775,15.611 -19.394,13.784 -17.365,10.724L-22.549,7.206C-23.415,8.516 -24.859,9.297 -26.412,9.297C-28.975,9.297 -31.06,7.186 -31.06,4.593C-31.06,2 -28.975,-0.11 -26.412,-0.11M57.759,4.593C57.759,2 55.674,-0.11 53.111,-0.11C50.549,-0.11 48.463,2 48.463,4.593C48.463,7.186 50.549,9.297 53.111,9.297C55.674,9.297 57.759,7.186 57.759,4.593M64.046,-6.271L64.046,20.545L57.807,20.545L57.807,14.518C56.382,15.211 54.794,15.611 53.111,15.611C47.107,15.611 42.224,10.668 42.224,4.593C42.224,-1.482 47.107,-6.425 53.111,-6.425C54.794,-6.425 56.382,-6.025 57.807,-5.332L57.807,-6.271L64.046,-6.271ZM36.344,-16.02C34.335,-16.022 32.705,-14.376 32.703,-12.343C32.701,-10.31 34.328,-8.66 36.337,-8.658C38.346,-8.657 39.976,-10.303 39.978,-12.336C39.979,-14.368 38.353,-16.018 36.344,-16.02M33.229,-6.313L39.468,-6.313L39.468,15.537L33.229,15.537L33.229,-6.313Z" style="fill:white;fill-rule:nonzero;"/>
    </g>
    <g transform="matrix(3.97803,0,0,3.97803,-296.22,456.919)">
        <path d="M260.836,119.855C257.745,119.855 256.161,118.167 256.161,114.739L256.161,109.129L254.395,109.129L254.395,106.272L256.161,106.272L256.161,103.389L259.745,103.208L259.745,106.272L262.628,106.272L262.628,109.129L259.745,109.129L259.745,114.687C259.745,116.194 260.368,116.895 261.537,116.895C262.083,116.895 262.576,116.817 262.913,116.739L263.096,119.622C262.472,119.777 261.641,119.855 260.836,119.855M252.956,106.74L252.281,109.571C251.294,109.155 250.229,108.921 249.346,108.921C247.242,108.921 246.099,110.402 246.099,112.843C246.099,115.518 247.294,116.895 249.528,116.895C250.385,116.895 251.424,116.661 252.41,116.219L252.982,119.102C252.099,119.544 250.748,119.855 249.242,119.855C244.931,119.855 242.437,117.181 242.437,112.947C242.437,108.74 244.905,105.961 249.034,105.961C250.515,105.961 251.995,106.298 252.956,106.74M237.213,116.921L237.213,114.142C236.616,114.012 235.993,113.934 235.369,113.934C234.174,113.934 233.239,114.402 233.239,115.622C233.239,116.713 234.019,117.284 235.395,117.284C236.174,117.284 236.824,117.129 237.213,116.921M235.032,119.855C231.473,119.855 229.681,118.115 229.681,115.778C229.681,113.207 231.785,111.7 234.902,111.674C235.629,111.674 236.564,111.778 237.213,111.882L237.213,111.259C237.213,109.675 236.304,108.921 234.564,108.921C233.421,108.921 232.2,109.103 231.136,109.545L230.486,106.74C231.603,106.272 233.395,105.961 234.98,105.961C238.798,105.961 240.693,107.987 240.693,111.493L240.693,118.713C239.629,119.258 237.629,119.855 235.032,119.855M225.985,119.855C222.894,119.855 221.31,118.167 221.31,114.739L221.31,109.129L219.544,109.129L219.544,106.272L221.31,106.272L221.31,103.389L224.894,103.208L224.894,106.272L227.777,106.272L227.777,109.129L224.894,109.129L224.894,114.687C224.894,116.194 225.517,116.895 226.686,116.895C227.232,116.895 227.725,116.817 228.063,116.739L228.245,119.622C227.621,119.777 226.79,119.855 225.985,119.855M206.059,119.544L206.059,107.104C207.695,106.402 209.929,105.961 211.929,105.961C215.72,105.961 217.902,107.831 217.902,111.285L217.902,119.544L214.318,119.544L214.318,111.544C214.318,109.752 213.487,108.921 211.902,108.921C211.071,108.921 210.292,109.077 209.617,109.389L209.617,119.544L206.059,119.544ZM197.518,116.895C199.362,116.895 200.323,115.363 200.323,112.895C200.323,110.454 199.362,108.921 197.518,108.921C195.7,108.921 194.687,110.454 194.687,112.895C194.687,115.363 195.7,116.895 197.518,116.895M197.518,119.855C193.518,119.855 191.025,117.077 191.025,112.895C191.025,108.74 193.518,105.961 197.518,105.961C201.544,105.961 203.985,108.74 203.985,112.895C203.985,117.077 201.544,119.855 197.518,119.855M189.775,106.74L189.1,109.571C188.113,109.155 187.048,108.921 186.165,108.921C184.061,108.921 182.918,110.402 182.918,112.843C182.918,115.518 184.113,116.895 186.347,116.895C187.204,116.895 188.243,116.661 189.23,116.219L189.801,119.102C188.918,119.544 187.567,119.855 186.061,119.855C181.75,119.855 179.257,117.181 179.257,112.947C179.257,108.74 181.724,105.961 185.853,105.961C187.334,105.961 188.814,106.298 189.775,106.74M165.407,119.544L165.407,107.104C167.043,106.402 169.276,105.961 171.276,105.961C175.068,105.961 177.25,107.831 177.25,111.285L177.25,119.544L173.666,119.544L173.666,111.544C173.666,109.752 172.835,108.921 171.25,108.921C170.419,108.921 169.64,109.077 168.965,109.389L168.965,119.544L165.407,119.544ZM159.403,116.921L159.403,114.142C158.806,114.012 158.182,113.934 157.559,113.934C156.364,113.934 155.43,114.402 155.43,115.622C155.43,116.713 156.209,117.284 157.585,117.284C158.364,117.284 159.014,117.129 159.403,116.921M157.222,119.855C153.663,119.855 151.871,118.115 151.871,115.778C151.871,113.207 153.975,111.7 157.092,111.674C157.819,111.674 158.754,111.778 159.403,111.882L159.403,111.259C159.403,109.675 158.494,108.921 156.754,108.921C155.611,108.921 154.391,109.103 153.326,109.545L152.677,106.74C153.793,106.272 155.585,105.961 157.17,105.961C160.988,105.961 162.883,107.987 162.883,111.493L162.883,118.713C161.819,119.258 159.819,119.855 157.222,119.855M140.845,116.375L143.079,116.375C145.26,116.375 146.533,115.83 146.533,114.116C146.533,112.428 145.442,111.726 143.39,111.726L140.845,111.726L140.845,116.375ZM140.845,108.921L143.52,108.921C145.156,108.921 145.858,108.116 145.858,106.636C145.858,105.052 144.585,104.532 142.871,104.532L140.845,104.532L140.845,108.921ZM137.235,119.544L137.235,101.364L142.845,101.364C146.922,101.364 149.545,102.896 149.545,106.065C149.545,107.856 148.714,109.103 147.546,109.83C149.234,110.609 150.221,112.116 150.221,114.168C150.221,117.83 147.546,119.544 143.39,119.544L137.235,119.544Z" style="fill:rgb(30,55,100);fill-rule:nonzero;"/>
    </g>
    <g transform="matrix(0,195.358,195.358,0,361.836,689.893)">
        <path d="M0.171,-0.574L0.686,-0.574L0.686,-0.065C0.686,0.321 0.429,0.514 0.171,0.707L0.171,-0.574Z" style="fill:url(#_Linear1);fill-rule:nonzero;"/>
    </g>
    <g transform="matrix(-146.109,144.445,144.445,146.109,722.47,603.828)">
        <path d="M0.313,-0.179C0.574,-0.437 0.876,-0.392 1.179,-0.347L0.313,0.509L-0.032,0.161L0.313,-0.179Z" style="fill:url(#_Linear2);fill-rule:nonzero;"/>
    </g>
    <defs>
        <linearGradient id="_Linear1" x1="0" y1="0" x2="1" y2="0" gradientUnits="userSpaceOnUse" gradientTransform="matrix(-0.348185,0.937426,-0.937426,-0.348185,0.452706,-0.314777)"><stop offset="0" style="stop-color:rgb(0,90,185);stop-opacity:1"/><stop offset="1" style="stop-color:rgb(30,55,100);stop-opacity:1"/></linearGradient>
        <linearGradient id="_Linear2" x1="0" y1="0" x2="1" y2="0" gradientUnits="userSpaceOnUse" gradientTransform="matrix(-0.900065,0.435756,-0.435756,-0.900065,1.15644,-0.265216)"><stop offset="0" style="stop-color:rgb(251,169,0);stop-opacity:1"/><stop offset="1" style="stop-color:rgb(255,216,0);stop-opacity:1"/></linearGradient>
    </defs>
</svg>
